<svg viewBox="0 0 48 48" fill="none" xmlns="http://www.w3.org/2000/svg">
  <defs>
    <linearGradient id="g" x1="4" y1="24" x2="44" y2="24" gradientUnits="userSpaceOnUse">
      <stop stop-color="#1CB5E0"/>
      <stop offset="1" stop-color="#000851"/>
    </linearGradient>
  </defs>
  <rect x="2" y="2" width="44" height="44" rx="13" fill="#09090b" stroke="url(#g)" stroke-width="2"/>
  <path d="M14 16c0-3.5 2.8-6 6.5-6 2.2 0 4 1 4 2.8 0 1.4-1 2.2-2.6 2.8-2.2.8-3.4 1.6-3.4 3.6 0 2.4 2.2 4 5.5 4 2.4 0 4.6-.9 6-2.2" stroke="url(#g)" stroke-width="2.4" stroke-linecap="round" stroke-linejoin="round" fill="none"/>
  <path d="M27 10v28M27 10c5.5 0 8 3.2 8 7s-2.5 7-8 7" stroke="white" stroke-width="2.4" stroke-linecap="round" stroke-linejoin="round" fill="none"/>
  <circle cx="38" cy="12" r="2" fill="#1CB5E0"/>
</svg>
